<svg xmlns:rdf="http://www.w3.org/1999/02/22-rdf-syntax-ns#" xmlns="http://www.w3.org/2000/svg" height="204.27154541015625" width="302" version="1.1" xmlns:cc="http://creativecommons.org/ns#" xmlns:dc="http://purl.org/dc/elements/1.1/" style=""><rect id="backgroundrect" width="100%" height="100%" x="0" y="0" fill="none" stroke="none"/>
 
<g class="currentLayer" style=""><title>Layer 1</title><g id="svg_1" class="selected" fill="#ffffff" fill-opacity="1" stroke="#ffffff" stroke-opacity="1">
  <g id="svg_2" fill="#ffffff" fill-opacity="1" stroke="#ffffff" stroke-opacity="1">
   <g clip-path="url(#d)" stroke-width="0" id="svg_3" fill="#ffffff" fill-opacity="1" stroke="#ffffff" stroke-opacity="1">
    <g stroke-width="0" id="svg_4" fill="#ffffff" fill-opacity="1" stroke="#ffffff" stroke-opacity="1">
     <path d="m277.9826354980469,203.6453094482422 c-14.02924491984129,0 -22.3501900688982,-7.179284802314044 -22.986886029829975,-17.520089457545282 h13.414504984791279 c0,3.446935103180408 1.910084938400388,8.035529898793698 10.209075043040514,8.32094514905691 c5.752209859617949,0 8.935685084106922,-3.446935103180408 8.935685084106922,-6.037625109881162 c-0.636694979466796,-4.017764949396849 -5.752209859617949,-4.303179872505069 -10.845769695352317,-5.181380013401508 c-5.752209859617949,-0.8342899702741207 -10.209075043040514,-1.9979049524900319 -13.414504984791279,-3.424980058763623 c-4.456864856267572,-2.3052749200150373 -7.025599818551541,-7.201240173885822 -7.025599818551541,-12.360665470025538 c0,-9.199144962798357 7.684249842435122,-16.3784297651124 21.076799455654623,-16.3784297651124 c12.777810332479476,0 21.076799455654623,6.608454956097603 21.691539390704634,16.663845015375614 h-12.755854306597712 c0,-2.568734962283969 -0.636694979466796,-6.893870206360816 -8.298989777485133,-6.893870206360816 c-5.115514880151153,0 -8.298989777485133,0.8562450146909057 -8.935685084106922,4.588595122768282 c0,5.181380013401508 10.845769695352317,4.895965090293288 19.14475947283745,6.893870206360816 c7.66229512517333,2.019859996906817 12.777810332479476,6.893870206360816 12.777810332479476,13.809695129983425 c0,12.64607941166878 -10.209075043040514,17.520089457545282 -22.986886029829975,17.520089457545282 " stroke-width="0" id="svg_5" fill="#ffffff" fill-opacity="1" stroke="#ffffff" stroke-opacity="1"/>
    </g>
   </g>
  </g>
  <g id="svg_6" fill="#ffffff" fill-opacity="1" stroke="#ffffff" stroke-opacity="1">
   <path d="m33.5369987487793,118.80000305175781 l44.041730768222806,-25.577574073600772 l23.623579373521807,40.52892889601708 h-59.366319709949494 " stroke-width="0" id="svg_7" fill="#ffffff" fill-opacity="1" stroke="#ffffff" stroke-opacity="1"/>
  </g>
  <g id="svg_8" fill="#ffffff" fill-opacity="1" stroke="#ffffff" stroke-opacity="1">
   <path d="m126.1500015258789,202.1199951171875 v-51.155148147201544 " stroke="#ffffff" stroke-width="12.887584955215454" id="svg_9" fill="#ffffff" fill-opacity="1" stroke-opacity="1"/>
  </g>
  <g id="svg_10" fill="#ffffff" fill-opacity="1" stroke="#ffffff" stroke-opacity="1">
   <g clip-path="url(#c)" stroke-width="0" id="svg_11" fill="#ffffff" fill-opacity="1" stroke="#ffffff" stroke-opacity="1">
    <g stroke-width="0" id="svg_12" fill="#ffffff" fill-opacity="1" stroke="#ffffff" stroke-opacity="1">
     <path d="m13.095515251159668,177.29904174804688 c0,8.035529898793698 7.025599818551541,14.6439848548913 14.665939572153093,14.6439848548913 c8.32094514905691,0 14.687895598034856,-6.608454956097603 14.687895598034856,-14.6439848548913 c0,-7.750114648530484 -6.36694979466796,-14.6439848548913 -14.687895598034856,-14.6439848548913 c-7.640339753601552,0 -14.665939572153093,6.893870206360816 -14.665939572153093,14.6439848548913 m14.02924491984129,26.43381982439041 c-14.02924491984129,0 -26.1484045741272,-11.789834969499111 -26.1484045741272,-26.43381982439041 s12.119159654285909,-26.1484045741272 26.1484045741272,-26.1484045741272 c5.752209859617949,0 10.867725066924095,1.4490299871128798 15.32459025034666,4.588595122768282 v-4.017764949396849 h12.777810332479476 v50.84777948829651 h-12.777810332479476 v-3.161519852917195 c-3.820169876800776,2.8761049298089745 -9.572379736418725,4.325134916921854 -15.32459025034666,4.325134916921854 " stroke-width="0" id="svg_13" fill="#ffffff" fill-opacity="1" stroke="#ffffff" stroke-opacity="1"/>
    </g>
   </g>
  </g>
  <g id="svg_14" fill="#ffffff" fill-opacity="1" stroke="#ffffff" stroke-opacity="1">
   <path d="m197.58999633789062,133.74000549316406 l-61.27640235826493,-106.8769402986145 l44.041730768222806,-25.862989323863985 l76.6009965344715,132.73992962247848 " stroke-width="0" id="svg_15" fill="#ffffff" fill-opacity="1" stroke="#ffffff" stroke-opacity="1"/>
  </g>
  <g id="svg_16" fill="#ffffff" fill-opacity="1" stroke="#ffffff" stroke-opacity="1">
   <g clip-path="url(#b)" stroke-width="0" id="svg_17" fill="#ffffff" fill-opacity="1" stroke="#ffffff" stroke-opacity="1">
    <g stroke-width="0" id="svg_18" fill="#ffffff" fill-opacity="1" stroke="#ffffff" stroke-opacity="1">
     <path d="m71.82521057128906,177.29904174804688 c0,8.035529898793698 6.388905166239738,14.6439848548913 14.687895598034856,14.6439848548913 c7.640339753601552,0 14.687895598034856,-6.608454956097603 14.687895598034856,-14.6439848548913 c0,-7.750114648530484 -7.047555190123319,-14.6439848548913 -14.687895598034856,-14.6439848548913 c-8.298989777485133,0 -14.687895598034856,6.893870206360816 -14.687895598034856,14.6439848548913 m14.051199637103082,26.43381982439041 c-14.687895598034856,0 -26.170360600008962,-11.789834969499111 -26.170360600008962,-26.43381982439041 s11.482465001974106,-26.1484045741272 26.170360600008962,-26.1484045741272 c5.730255142356157,0 10.845769695352317,1.4490299871128798 15.32459025034666,4.588595122768282 v-21.537855061252117 h12.755854306597712 v68.36787156308174 h-12.755854306597712 v-3.161519852917195 c-4.478819900684357,2.8761049298089745 -9.594335107990503,4.325134916921854 -15.32459025034666,4.325134916921854 " stroke-width="0" id="svg_19" fill="#ffffff" fill-opacity="1" stroke="#ffffff" stroke-opacity="1"/>
    </g>
   </g>
  </g>
  <g id="svg_20" fill="#ffffff" fill-opacity="1" stroke="#ffffff" stroke-opacity="1">
   <path d="m85.24700164794922,73.11900329589844 l44.67842672915458,-25.270205414695738 l49.15724662983894,85.88795840338707 h-46.61046278611184 v12.64607941166878 h-12.755854306597712 v-12.64607941166878 " stroke-width="0" id="svg_21" fill="#ffffff" fill-opacity="1" stroke="#ffffff" stroke-opacity="1"/>
  </g>
  <g id="svg_22" fill="#ffffff" fill-opacity="1" stroke="#ffffff" stroke-opacity="1">
   <g clip-path="url(#a)" stroke-width="0" id="svg_23" fill="#ffffff" fill-opacity="1" stroke="#ffffff" stroke-opacity="1">
    <g stroke-width="0" id="svg_24" fill="#ffffff" fill-opacity="1" stroke="#ffffff" stroke-opacity="1">
     <path d="m292.69244384765625,146.78126525878906 c-3.205429941750765,0 -6.388905166239738,-2.8761049298089745 -6.388905166239738,-6.32303970583439 s3.18347489733398,-6.32303970583439 6.388905166239738,-6.32303970583439 c3.820169876800776,0 6.388905166239738,2.8761049298089745 6.388905166239738,6.32303970583439 s-2.568734962283969,6.32303970583439 -6.388905166239738,6.32303970583439 m0,-11.767880252237319 c-3.205429941750765,0 -5.115514880151153,2.568734962283969 -5.115514880151153,5.4448398920929435 s1.910084938400388,5.466794936509729 5.115514880151153,5.466794936509729 c3.18347489733398,0 5.093559835734368,-2.590690006700754 5.093559835734368,-5.466794936509729 s-1.910084938400388,-5.4448398920929435 -5.093559835734368,-5.4448398920929435 " stroke-width="0" id="svg_25" fill="#ffffff" fill-opacity="1" stroke="#ffffff" stroke-opacity="1"/>
    </g>
    <g stroke-width="0" id="svg_26" fill="#ffffff" fill-opacity="1" stroke="#ffffff" stroke-opacity="1">
     <path d="m294.00970458984375,143.92767333984375 l-1.273389958933592,-2.8761049298089745 h-1.273389958933592 v2.8761049298089745 h-0.9660199914085865 v-6.893870206360816 h2.8761049298089745 c0.636694979466796,0 1.910084938400388,0.8781999773189426 1.910084938400388,2.019859996906817 s-0.636694979466796,1.7124900293818115 -1.273389958933592,1.9979049524900319 l1.273389958933592,2.8761049298089745 m-2.546779917867184,-6.015669738309384 h-1.273389958933592 v2.2833200391757487 h1.273389958933592 c1.273389958933592,0 1.273389958933592,-0.2854150048969686 1.273389958933592,-1.1416600195878743 c0,-0.5927850133163481 0,-1.1416600195878743 -1.273389958933592,-1.1416600195878743 " stroke-width="0" id="svg_27" fill="#ffffff" fill-opacity="1" stroke="#ffffff" stroke-opacity="1"/>
    </g>
    <g stroke-width="0" id="svg_28" fill="#ffffff" fill-opacity="1" stroke="#ffffff" stroke-opacity="1">
     <path d="m208.3853302001953,177.29904174804688 c0,8.035529898793698 6.388905166239738,14.6439848548913 14.687895598034856,14.6439848548913 c7.66229512517333,0 14.665939572153093,-6.608454956097603 14.665939572153093,-14.6439848548913 c0,-7.750114648530484 -7.003645101289749,-14.6439848548913 -14.665939572153093,-14.6439848548913 c-8.298989777485133,0 -14.687895598034856,6.893870206360816 -14.687895598034856,14.6439848548913 m14.02924491984129,26.43381982439041 c-14.665939572153093,0 -26.1484045741272,-11.789834969499111 -26.1484045741272,-26.43381982439041 s11.482465001974106,-26.1484045741272 26.1484045741272,-26.1484045741272 c5.752209859617949,0 10.867725066924095,1.4490299871128798 15.32459025034666,4.588595122768282 v-4.017764949396849 h12.141114371547701 v50.84777948829651 h-12.141114371547701 v-3.161519852917195 c-4.456864856267572,2.8761049298089745 -9.572379736418725,4.325134916921854 -15.32459025034666,4.325134916921854 " stroke-width="0" id="svg_29" fill="#ffffff" fill-opacity="1" stroke="#ffffff" stroke-opacity="1"/>
    </g>
    <g stroke-width="0" id="svg_30" fill="#ffffff" fill-opacity="1" stroke="#ffffff" stroke-opacity="1">
     <path d="m149.69952392578125,177.29904174804688 c0,8.035529898793698 7.025599818551541,14.6439848548913 14.687895598034856,14.6439848548913 c8.298989777485133,0 14.687895598034856,-6.608454956097603 14.687895598034856,-14.6439848548913 c0,-7.750114648530484 -6.388905166239738,-14.6439848548913 -14.687895598034856,-14.6439848548913 c-7.66229512517333,0 -14.687895598034856,6.893870206360816 -14.687895598034856,14.6439848548913 m29.375791196069713,-43.097666148386 h12.755854306597712 v68.36787156308174 h-12.755854306597712 v-3.161519852917195 c-3.842124921217561,2.8761049298089745 -8.957639801368714,4.325134916921854 -14.687895598034856,4.325134916921854 c-14.687895598034856,0 -26.807053943700794,-11.789834969499111 -26.807053943700794,-26.43381982439041 s12.119159654285909,-26.1484045741272 26.807053943700794,-26.1484045741272 c5.730255142356157,0 10.845769695352317,1.4490299871128798 14.687895598034856,4.588595122768282 v-21.537855061252117 z" stroke-width="0" id="svg_31" fill="#ffffff" fill-opacity="1" stroke="#ffffff" stroke-opacity="1"/>
    </g>
   </g>
  </g>
 </g></g></svg>